<?xml version="1.0" encoding="UTF-8" standalone="no"?>
<!-- Created with Inkscape (http://www.inkscape.org/) -->
<svg
   xmlns:dc="http://purl.org/dc/elements/1.1/"
   xmlns:cc="http://web.resource.org/cc/"
   xmlns:rdf="http://www.w3.org/1999/02/22-rdf-syntax-ns#"
   xmlns:svg="http://www.w3.org/2000/svg"
   xmlns="http://www.w3.org/2000/svg"
   xmlns:sodipodi="http://sodipodi.sourceforge.net/DTD/sodipodi-0.dtd"
   xmlns:inkscape="http://www.inkscape.org/namespaces/inkscape"
   width="569.13806"
   height="600.06647"
   id="svg2"
   sodipodi:version="0.32"
   inkscape:version="0.44"
   sodipodi:docbase="/home/clement/Perso/Improcité/Images"
   sodipodi:docname="logo_improcite.svg"
   version="1.0">
  <defs
     id="defs4">
    <linearGradient
       id="linearGradient3502">
      <stop
         style="stop-color:black;stop-opacity:1;"
         offset="0"
         id="stop3504" />
      <stop
         style="stop-color:black;stop-opacity:0;"
         offset="1"
         id="stop3506" />
    </linearGradient>
  </defs>
  <sodipodi:namedview
     id="base"
     pagecolor="#ffffff"
     bordercolor="#666666"
     borderopacity="1.0"
     gridtolerance="10000"
     guidetolerance="10"
     objecttolerance="10"
     inkscape:pageopacity="0.0"
     inkscape:pageshadow="2"
     inkscape:zoom="1.4"
     inkscape:cx="346.06358"
     inkscape:cy="300.54481"
     inkscape:document-units="px"
     inkscape:current-layer="layer1"
     inkscape:window-width="1383"
     inkscape:window-height="898"
     inkscape:window-x="289"
     inkscape:window-y="17"
     width="744.09448px"
     height="1052.3622px" />
  <metadata
     id="metadata7">
    <rdf:RDF>
      <cc:Work
         rdf:about="">
        <dc:format>image/svg+xml</dc:format>
        <dc:type
           rdf:resource="http://purl.org/dc/dcmitype/StillImage" />
      </cc:Work>
    </rdf:RDF>
  </metadata>
  <g
     inkscape:label="Layer 1"
     inkscape:groupmode="layer"
     id="layer1"
     transform="translate(-129.0707,-225.4539)">
    <path
       style="fill:black"
       d="M 619.03089,588.78719 C 608.16064,618.51982 615.18466,577.48693 615.18466,592.07193 M 131.49811,736.38003 L 133.92555,647.23963 L 175.553,644.54033 L 217.18048,641.84103 L 211.75393,669.54313 C 208.76933,684.77923 206.32739,726.10713 206.32739,761.38273 L 206.32739,825.52033 L 167.69902,825.52033 L 129.07067,825.52033 L 131.49811,736.38003 z M 615.18466,592.07193 C 615.18466,608.93553 611.03639,609.67333 532.42301,606.79103 L 449.66137,603.75663 L 429.35431,714.63843 L 409.04727,825.52033 L 350.95342,825.52033 C 294.34478,825.52033 292.74483,824.90893 288.37195,801.60463 C 285.90377,788.45103 281.4354,753.63073 278.44227,724.22633 L 273.0002,670.76363 L 307.80667,664.75973 C 343.37795,658.62383 346.38577,653.81823 337.0175,618.08963 L 331.65445,597.63603 L 230.66056,603.83153 L 129.66663,610.02693 L 129.66663,565.84493 L 129.66663,521.66295 L 160.66777,543.14243 C 177.71842,554.95613 201.67491,564.60003 213.90443,564.57333 C 281.6119,564.42563 351.131,518.25001 351.131,473.42537 C 351.131,452.76769 348.35935,450.73727 323.5072,453.18901 C 303.01359,455.21076 292.94124,462.21211 284.48492,480.3137 C 258.92104,535.03558 204.07839,524.96491 192.77971,463.474 C 181.72406,403.30552 213.9257,362.7069 247.84598,394.04855 C 261.33343,406.51066 265.39869,405.72334 295.54077,384.81142 L 328.4914,361.95103 L 309.05504,345.88213 C 298.36506,337.04425 284.29379,329.81325 277.78555,329.81325 C 271.27732,329.81325 265.95241,323.33649 265.95241,315.42045 C 265.95241,302.51495 264.17801,302.66718 248.78122,316.89349 C 232.14355,332.26637 231.22569,332.24069 219.23961,316.06721 C 208.77806,301.95084 206.82739,301.56073 206.59828,313.53911 C 206.4493,321.32929 194.6756,332.63069 180.43457,338.65334 C 166.19349,344.67597 148.81754,357.86955 141.82125,367.9724 C 130.20769,384.74289 129.31073,379.53919 131.51319,308.16958 C 133.56156,241.79287 136.17471,229.55888 148.83181,227.08822 C 161.70483,224.57541 163.73807,231.38293 163.73807,276.99589 C 163.73807,344.10848 179.07581,346.4098 182.4782,279.80772 C 184.74338,235.46648 187.20963,229.48659 204.2507,227.0161 C 217.90952,225.03595 225.54982,229.97405 230.66329,244.08714 L 237.85793,263.94424 L 247.94592,244.69906 C 253.49434,234.11421 265.56514,225.45387 274.76996,225.45387 C 289.35547,225.45387 291.50599,231.53405 291.50599,272.772 C 291.50599,298.79699 295.33902,322.5088 300.02385,325.46494 C 305.34444,328.82226 308.54171,311.0609 308.54171,278.14681 L 308.54171,225.45387 L 334.65525,225.45387 C 372.19563,225.45387 393.72031,239.90622 393.72031,265.11204 C 393.72031,282.21361 388.349,287.86181 368.16672,291.98298 C 350.67672,295.55438 342.61314,302.34644 342.61314,313.5071 C 342.61314,326.73319 349.04887,329.81325 376.68458,329.81325 L 410.75603,329.81325 L 410.75603,277.63356 C 410.75603,226.47922 411.21631,225.45621 434.18014,225.57262 C 488.65463,225.84879 516.15525,248.40958 494.49643,275.05455 C 486.37965,285.03991 487.47183,293.77908 499.74424,317.04581 L 515.24205,346.42739 L 480.78125,449.00216 C 461.8278,505.41829 447.42469,552.72123 448.77432,554.11973 C 450.12395,555.51823 475.95341,550.32143 506.17308,542.57123 L 561.11797,528.47985 L 580.88208,429.14654 C 591.75234,374.51324 603.91734,329.81325 607.91543,329.81325 C 611.91351,329.81325 615.18466,380.91941 615.18466,443.38249 C 615.18466,505.84556 618.39352,554.92693 622.31545,552.45213 C 626.23738,549.97743 645.10348,544.36083 664.24007,539.97091 C 697.49623,532.34195 625.23454,542.46634 619.52697,558.33677 C 613.81939,574.2072 629.90114,559.05455 619.03089,588.78719 M 461.73275,323.29079 C 461.66102,319.70343 457.88667,310.89811 453.34533,303.72341 C 446.6684,293.17476 445.06336,294.42291 444.95789,310.24587 C 444.88616,321.00792 448.6605,329.81325 453.34533,329.81325 C 458.03014,329.81325 461.80449,326.87814 461.73275,323.29079 z M 359.64886,260.24033 C 359.64886,255.45718 355.81583,251.54371 351.131,251.54371 C 346.44618,251.54371 342.61314,255.45718 342.61314,260.24033 C 342.61314,265.02346 346.44618,268.93694 351.131,268.93694 C 355.81583,268.93694 359.64886,265.02346 359.64886,260.24033 z M 461.86318,260.24033 C 461.86318,255.45718 458.03014,251.54371 453.34533,251.54371 C 448.6605,251.54371 444.82746,255.45718 444.82746,260.24033 C 444.82746,265.02346 448.6605,268.93694 453.34533,268.93694 C 458.03014,268.93694 461.86318,265.02346 461.86318,260.24033 z M 602.87041,804.99343 C 607.21974,787.30053 604.1551,783.69853 580.67331,778.90363 C 565.68959,775.84393 542.41021,773.34063 528.94134,773.34063 C 512.8245,773.34063 504.45249,768.86963 504.45249,760.26263 C 504.45249,750.85333 512.21684,747.80383 532.13035,749.39183 C 554.78577,751.19853 560.28249,748.20873 562.42189,732.91503 C 564.71731,716.50623 559.69874,713.48153 521.21006,708.07693 C 481.73344,702.53363 477.87074,700.07273 482.28433,683.27793 C 484.97923,673.02313 487.23649,661.52643 487.30045,657.72943 C 487.36443,653.93263 515.20629,651.97583 549.17125,653.38113 L 610.92574,655.93633 L 613.36366,740.72833 C 614.95255,795.99143 612.67128,825.52033 606.81297,825.52033 C 601.62033,825.52033 599.95535,816.85163 602.87041,804.99343 z M 530.00607,312.42002 C 510.71867,292.72786 509.26622,283.55658 521.68341,259.86792 C 547.30394,210.99089 614.65857,227.53923 615.05423,282.80815 C 615.35534,324.86779 560.80185,343.86208 530.00607,312.42002 z "
       id="path3489"
       sodipodi:nodetypes="cscccccccccccccccccccccccccccsssssscccsssssssssssscccssscccssscccsscccscccsssszzcsssccsssccsssccsssssssscccsccssc" />
    <path
       sodipodi:type="arc"
       style="fill:red;fill-rule:evenodd;stroke:black;stroke-width:1px;stroke-linecap:butt;stroke-linejoin:miter;stroke-opacity:1"
       id="path3514"
       sodipodi:cx="685.13599"
       sodipodi:cy="525.56763"
       sodipodi:rx="9.8489876"
       sodipodi:ry="9.0308733"
       d="M 694.98497 525.56763 A 9.8489876 9.0308733 0 1 1  675.287,525.56763 A 9.8489876 9.0308733 0 1 1  694.98497 525.56763 z"
       transform="matrix(11.43445,-1.962373,0.488977,2.330777,-7508.268,680.1467)" />
  </g>
</svg>
